<svg width="35" height="36" viewBox="0 0 35 36" fill="none" xmlns="http://www.w3.org/2000/svg">
<g clip-path="url(#clip0_6_309)">
<path d="M17.5 35.017C19.8906 35.017 22.141 34.5596 24.2512 33.6446C26.3615 32.7295 28.223 31.4656 29.8357 29.8529C31.4485 28.2401 32.7124 26.3786 33.6274 24.2684C34.5425 22.1581 35 19.9076 35 17.5171C35 15.1266 34.5425 12.8762 33.6274 10.7659C32.7124 8.65563 31.4485 6.79411 29.8357 5.18137C28.223 3.56863 26.3586 2.30474 24.2426 1.38971C22.1266 0.474674 19.8734 0.0171585 17.4828 0.0171585C15.0923 0.0171585 12.8419 0.474674 10.7316 1.38971C8.62131 2.30474 6.76265 3.56863 5.15563 5.18137C3.54861 6.79411 2.28758 8.65563 1.37255 10.7659C0.457516 12.8762 0 15.1266 0 17.5171C0 19.9076 0.457516 22.1581 1.37255 24.2684C2.28758 26.3786 3.55146 28.2401 5.1642 29.8529C6.77696 31.4656 8.63847 32.7295 10.7488 33.6446C12.859 34.5596 15.1095 35.017 17.5 35.017Z" fill="#FFE2E6"/>
<path d="M13.5887 26C13.1395 26 12.7854 25.8791 12.5263 25.6373C12.2672 25.3954 12.129 25.0456 12.1117 24.5879L11.6583 14.0292H10.57C10.4059 14.0292 10.2699 13.9752 10.1619 13.8672C10.054 13.7592 10 13.6275 10 13.4721C10 13.308 10.054 13.1698 10.1619 13.0575C10.2699 12.9452 10.4059 12.8891 10.57 12.8891H13.783V11.8138C13.783 11.261 13.9514 10.8205 14.2883 10.4923C14.6251 10.1641 15.0872 10 15.6745 10H18.3692C18.9566 10 19.423 10.1641 19.7685 10.4923C20.1139 10.8205 20.2866 11.261 20.2866 11.8138V12.8891H23.4738C23.6378 12.8891 23.7781 12.9452 23.8947 13.0575C24.0114 13.1698 24.0653 13.308 24.0567 13.4721C24.048 13.6275 23.9897 13.7592 23.8818 13.8672C23.7738 13.9752 23.6378 14.0292 23.4738 14.0292H22.4243L21.9708 24.5879C21.9622 25.0456 21.824 25.3954 21.5562 25.6373C21.2885 25.8791 20.9344 26 20.494 26H13.5887ZM14.7417 23.9271C14.8885 23.9271 15.003 23.8839 15.085 23.7975C15.1671 23.7112 15.2081 23.6032 15.2081 23.4737L14.949 15.6745C14.9404 15.3636 14.7806 15.2081 14.4696 15.2081C14.1414 15.2081 14 15.3636 14 15.6745L14.2494 23.4737C14.2494 23.776 14.4135 23.9271 14.7417 23.9271ZM17.0089 23.9271C17.3458 23.9271 17.5142 23.776 17.5142 23.4737V15.6745C17.5142 15.3636 17.3458 15.2081 17.0089 15.2081C16.6894 15.2081 16.5296 15.3636 16.5296 15.6745V23.4737C16.5296 23.776 16.6894 23.9271 17.0089 23.9271ZM19.2891 23.9271C19.6173 23.9271 19.7813 23.776 19.7813 23.4737L20.0534 15.6745C20.0534 15.3636 19.8936 15.2081 19.5741 15.2081C19.2546 15.2081 19.0904 15.3636 19.0818 15.6745L18.8227 23.4737C18.8227 23.6032 18.8637 23.7112 18.9458 23.7975C19.0278 23.8839 19.1422 23.9271 19.2891 23.9271ZM15.1433 12.8891H18.9004V11.8785C18.9004 11.7058 18.8443 11.5676 18.7319 11.464C18.6197 11.3603 18.4729 11.3085 18.2915 11.3085H15.7393C15.5665 11.3085 15.424 11.3603 15.3117 11.464C15.1995 11.5676 15.1433 11.7058 15.1433 11.8785V12.8891Z" fill="#FF7285"/>
</g>
<defs>
<clipPath id="clip0_6_309">
<rect width="35" height="35.017" fill="white"/>
</clipPath>
</defs>
</svg>
