<svg width="42" height="42" viewBox="0 0 42 42" fill="none" xmlns="http://www.w3.org/2000/svg">
<circle cx="21" cy="21" r="20" stroke="#B4B4C6" stroke-width="1.5"/>
<path d="M18.8607 29.5604C19.6037 29.5604 20.1982 29.2136 20.644 28.5201L29.1641 15.0465C29.2962 14.8318 29.42 14.6048 29.5356 14.3653C29.6512 14.1259 29.709 13.8741 29.709 13.6099C29.709 13.1146 29.5232 12.7224 29.1517 12.4334C28.7802 12.1445 28.3633 12 27.9009 12C27.29 12 26.7864 12.3302 26.3901 12.9907L18.7616 25.3251L15.3437 20.7183C15.0795 20.3715 14.8153 20.1362 14.5511 20.0124C14.2869 19.8885 14.0062 19.8266 13.709 19.8266C13.2302 19.8266 12.8256 20 12.4954 20.3468C12.1651 20.6935 12 21.1063 12 21.5851C12 22.064 12.1651 22.518 12.4954 22.9473L16.9535 28.5201C17.2343 28.8999 17.5273 29.1682 17.8328 29.3251C18.1383 29.482 18.4809 29.5604 18.8607 29.5604Z" fill="#B4B4C6"/>
</svg>
