<svg width="35" height="36" viewBox="0 0 35 36" fill="none" xmlns="http://www.w3.org/2000/svg">
<g clip-path="url(#clip0_33_2)">
<path d="M17.5 35.017C19.8906 35.017 22.141 34.5596 24.2512 33.6446C26.3615 32.7295 28.223 31.4656 29.8357 29.8529C31.4485 28.2401 32.7124 26.3786 33.6274 24.2684C34.5425 22.1581 35 19.9076 35 17.5171C35 15.1266 34.5425 12.8762 33.6274 10.7659C32.7124 8.65563 31.4485 6.79411 29.8357 5.18137C28.223 3.56863 26.3586 2.30474 24.2426 1.38971C22.1266 0.474674 19.8734 0.0171585 17.4828 0.0171585C15.0923 0.0171585 12.8419 0.474674 10.7316 1.38971C8.62131 2.30474 6.76265 3.56863 5.15563 5.18137C3.54861 6.79411 2.28758 8.65563 1.37255 10.7659C0.457516 12.8762 0 15.1266 0 17.5171C0 19.9076 0.457516 22.1581 1.37255 24.2684C2.28758 26.3786 3.55146 28.2401 5.1642 29.8529C6.77696 31.4656 8.63847 32.7295 10.7488 33.6446C12.859 34.5596 15.1095 35.017 17.5 35.017Z" fill="#DAF7E8"/>
<path d="M12.5 24.1377L10.5413 24.8637C10.3861 24.9185 10.2446 24.8866 10.1167 24.7679C9.98888 24.6492 9.96605 24.5031 10.0482 24.3296L10.8427 22.4531L20.0746 13.2348L21.7457 14.9059L12.5 24.1377ZM22.5948 14.0704L20.9237 12.3856L21.9647 11.3583C22.1931 11.1392 22.4305 11.0205 22.677 11.0022C22.9236 10.9839 23.1564 11.0798 23.3756 11.2898L23.6906 11.6186C23.9098 11.8286 24.0125 12.0592 23.9988 12.3103C23.9851 12.5614 23.8641 12.8057 23.6358 13.0431L22.5948 14.0704Z" fill="#4AD991"/>
</g>
<defs>
<clipPath id="clip0_33_2">
<rect width="35" height="35.017" fill="white"/>
</clipPath>
</defs>
</svg>
